# xmcd
#
# Track frame offsets:
#	150
#	14418
#	36960
#	49831
#	63721
#	77459
#	93614
#	109414
#	129010
#	144944
#	159788
#	176200
#	184202
#
# Disc length: 2639 seconds
# Revision: 0
# Processed by: cddbd v1.5.2PL0 Copyright (c) Steve Scherf et al.
# Submitted via: dBpowerAMP V12.0
#
DISCID=ab0a4d0d
DTITLE=Greg Blake - Songs of Heart and Home
DYEAR=2015
DGENRE=Country
TTITLE0=Sweetest Love
TTITLE1=Dreaming of a Little Cabin
TTITLE2=Hey Porter
TTITLE3=I Still Miss Someone
TTITLE4=The Hills of My Home
TTITLE5=Thinking of You
TTITLE6=Cruisin' Timber
TTITLE7=Summer Wages
TTITLE8=Home
TTITLE9=50 Miles from Nowhere
TTITLE10=Where I Live
TTITLE11=Home is Where the Heart Is
TTITLE12=Turn Your Heart Toward Home
EXTD=
EXTT0=
EXTT1=
EXTT2=
EXTT3=
EXTT4=
EXTT5=
EXTT6=
EXTT7=
EXTT8=
EXTT9=
EXTT10=
EXTT11=
EXTT12=
PLAYORDER=
